<svg width="12" height="12" viewBox="0 0 12 12" fill="none" xmlns="http://www.w3.org/2000/svg">
<g id="heroicons:sm-user">
<g id="Group">
<path id="Vector" fill-rule="evenodd" clip-rule="evenodd" d="M6.14832 5.51316C6.5969 5.51316 7.02711 5.33496 7.3443 5.01777C7.66149 4.70058 7.83969 4.27037 7.83969 3.82179C7.83969 3.37321 7.66149 2.943 7.3443 2.62581C7.02711 2.30861 6.5969 2.13042 6.14832 2.13042C5.69974 2.13042 5.26953 2.30861 4.95234 2.62581C4.63514 2.943 4.45695 3.37321 4.45695 3.82179C4.45695 4.27037 4.63514 4.70058 4.95234 5.01777C5.26953 5.33496 5.69974 5.51316 6.14832 5.51316ZM3.75157 10.5873C2.89565 10.5873 2.17465 9.86778 2.50219 9.077C2.70053 8.59819 2.99123 8.16313 3.3577 7.79666C3.72417 7.43019 4.15923 7.13949 4.63804 6.94116C5.11686 6.74282 5.63005 6.64074 6.14832 6.64074C6.66658 6.64074 7.17978 6.74282 7.65859 6.94116C8.13741 7.13949 8.57247 7.43019 8.93894 7.79666C9.30541 8.16313 9.59611 8.59819 9.79444 9.077C10.122 9.86778 9.40099 10.5873 8.54506 10.5873H3.75157Z" fill="#F53838"/>
</g>
</g>
</svg>
